<?xml version="1.0" encoding="UTF-8" standalone="no"?>
<!-- Created with Inkscape (http://www.inkscape.org/) -->
<svg
   xmlns:dc="http://purl.org/dc/elements/1.1/"
   xmlns:cc="http://web.resource.org/cc/"
   xmlns:rdf="http://www.w3.org/1999/02/22-rdf-syntax-ns#"
   xmlns:svg="http://www.w3.org/2000/svg"
   xmlns="http://www.w3.org/2000/svg"
   xmlns:xlink="http://www.w3.org/1999/xlink"
   xmlns:sodipodi="http://sodipodi.sourceforge.net/DTD/sodipodi-0.dtd"
   xmlns:inkscape="http://www.inkscape.org/namespaces/inkscape"
   width="256"
   height="192"
   id="svg3058"
   sodipodi:version="0.32"
   inkscape:version="0.44"
   version="1.0"
   sodipodi:docbase="C:\Projects\tetattds\images"
   sodipodi:docname="menubackground.svg"
   inkscape:export-filename="C:/Projects/tetattds/images/menubackground.png"
   inkscape:export-xdpi="90"
   inkscape:export-ydpi="90">
  <defs
     id="defs3060">
    <linearGradient
       inkscape:collect="always"
       xlink:href="#linearGradient6458"
       id="linearGradient4851"
       gradientUnits="userSpaceOnUse"
       gradientTransform="matrix(1.788218,0,0,1.788218,-1.9034,43.3848)"
       x1="46.920059"
       y1="6.1885772"
       x2="46.920059"
       y2="40.196201" />
    <linearGradient
       inkscape:collect="always"
       xlink:href="#linearGradient6458"
       id="linearGradient2103"
       gradientUnits="userSpaceOnUse"
       gradientTransform="matrix(1.788218,0,0,1.788218,-63.04088,76.44807)"
       x1="58.674313"
       y1="0.095632128"
       x2="46.920059"
       y2="40.196201" />
    <linearGradient
       inkscape:collect="always"
       id="linearGradient3085">
      <stop
         style="stop-color:#2ca02c;stop-opacity:1"
         offset="0"
         id="stop3087" />
      <stop
         style="stop-color:white;stop-opacity:1"
         offset="1"
         id="stop3089" />
    </linearGradient>
    <linearGradient
       id="linearGradient6458"
       inkscape:collect="always">
      <stop
         id="stop6460"
         offset="0"
         style="stop-color:white;stop-opacity:0.76506025" />
      <stop
         id="stop6462"
         offset="1"
         style="stop-color:white;stop-opacity:0" />
    </linearGradient>
    <linearGradient
       inkscape:collect="always"
       xlink:href="#linearGradient6458"
       id="linearGradient2965"
       gradientUnits="userSpaceOnUse"
       gradientTransform="matrix(1.946561,0,0,1.955511,129.6361,-0.202244)"
       x1="46.920059"
       y1="6.1885772"
       x2="46.920059"
       y2="40.196201" />
    <linearGradient
       inkscape:collect="always"
       xlink:href="#linearGradient3085"
       id="linearGradient3091"
       x1="256"
       y1="0"
       x2="0"
       y2="192"
       gradientUnits="userSpaceOnUse" />
    <linearGradient
       inkscape:collect="always"
       xlink:href="#linearGradient6458"
       id="linearGradient4845"
       gradientUnits="userSpaceOnUse"
       gradientTransform="matrix(1.788218,0,0,1.788218,-63.04088,76.44807)"
       x1="58.674313"
       y1="0.095632128"
       x2="46.920059"
       y2="40.196201" />
    <linearGradient
       inkscape:collect="always"
       xlink:href="#linearGradient6458"
       id="linearGradient4863"
       gradientUnits="userSpaceOnUse"
       gradientTransform="matrix(1.788218,0,0,1.788218,-1.9034,43.3848)"
       x1="46.920059"
       y1="6.1885772"
       x2="46.920059"
       y2="40.196201" />
    <linearGradient
       inkscape:collect="always"
       xlink:href="#linearGradient6458"
       id="linearGradient4867"
       gradientUnits="userSpaceOnUse"
       gradientTransform="matrix(1.788218,0,0,1.788218,-62.7695,78.19794)"
       x1="57.087376"
       y1="6.0181861"
       x2="46.920059"
       y2="40.196201" />
  </defs>
  <sodipodi:namedview
     id="base"
     pagecolor="#ffffff"
     bordercolor="#666666"
     borderopacity="1.0"
     gridtolerance="10000"
     guidetolerance="10"
     objecttolerance="10"
     inkscape:pageopacity="0.0"
     inkscape:pageshadow="2"
     inkscape:zoom="1"
     inkscape:cx="128"
     inkscape:cy="80.784095"
     inkscape:document-units="px"
     inkscape:current-layer="layer1"
     width="256px"
     height="192px"
     inkscape:window-width="900"
     inkscape:window-height="578"
     inkscape:window-x="0"
     inkscape:window-y="26" />
  <metadata
     id="metadata3063">
    <rdf:RDF>
      <cc:Work
         rdf:about="">
        <dc:format>image/svg+xml</dc:format>
        <dc:type
           rdf:resource="http://purl.org/dc/dcmitype/StillImage" />
      </cc:Work>
    </rdf:RDF>
  </metadata>
  <g
     inkscape:label="Layer 1"
     inkscape:groupmode="layer"
     id="layer1">
    <rect
       style="fill:url(#linearGradient3091);fill-opacity:1.0;fill-rule:nonzero;stroke:none;stroke-width:2;stroke-linecap:round;stroke-miterlimit:4;stroke-dasharray:none;stroke-opacity:1"
       id="rect3083"
       width="256"
       height="192"
       x="0"
       y="0" />
    <rect
       style="fill:#2ca02c;fill-opacity:1;fill-rule:evenodd;stroke:none;stroke-width:4.87425375;stroke-linecap:butt;stroke-linejoin:miter;stroke-miterlimit:4;stroke-dasharray:none;stroke-opacity:1"
       id="rect5075"
       width="142.36517"
       height="142.36516"
       x="-50.048679"
       y="85.630577"
       rx="15.000002"
       ry="15.000002"
       inkscape:export-filename="C:\Projects\tetattds\images\block2.png"
       inkscape:export-xdpi="9.4826584"
       inkscape:export-ydpi="9.4826584"
       transform="matrix(0.965926,-0.258819,0.258819,0.965926,0,0)" />
    <rect
       ry="13.000002"
       rx="13.000002"
       y="89.264511"
       x="-46.414734"
       height="135.09729"
       width="135.09731"
       id="rect8417"
       style="fill:url(#linearGradient4867);fill-opacity:1;fill-rule:evenodd;stroke:none;stroke-width:4.87425375;stroke-linecap:butt;stroke-linejoin:miter;stroke-miterlimit:4;stroke-dasharray:none;stroke-opacity:1"
       inkscape:export-filename="C:\Projects\tetattds\images\block2.png"
       inkscape:export-xdpi="9.4826584"
       inkscape:export-ydpi="9.4826584"
       transform="matrix(0.965926,-0.258819,0.258819,0.965926,0,0)" />
    <path
       style="fill:white;fill-opacity:1;stroke:none;stroke-opacity:1"
       d="M 52.150307,110.89044 C 47.040623,112.17661 42.125695,114.63545 37.813045,118.23708 C 26.565556,127.63022 22.481054,142.38298 26.147724,155.65067 C 24.603132,157.46982 23.131473,159.24421 21.833523,160.97201 C 18.579974,165.30301 16.121815,169.31014 14.635555,173.16165 C 13.149325,177.01319 12.544799,181.37799 15.050381,184.37822 C 17.555973,187.37844 21.962752,187.59999 26.017508,186.82406 C 30.072281,186.04811 34.422501,184.28181 39.264049,181.85233 C 41.191054,180.88538 43.230699,179.7526 45.290572,178.56124 C 57.688443,184.52206 72.947967,183.16461 84.188937,173.7769 C 95.436256,164.3839 99.555341,149.57077 95.888961,136.30322 C 97.406745,134.5113 98.840419,132.75947 100.12108,131.05468 C 103.37463,126.72366 105.92756,122.69116 107.4138,118.83963 C 108.90006,114.9881 109.4098,110.6487 106.9042,107.64848 C 104.3986,104.64826 100.05193,104.46139 95.997169,105.23734 C 91.942414,106.01328 87.532124,107.74487 82.690537,110.17435 C 80.780279,111.13291 78.798203,112.26058 76.758803,113.44005 C 69.105747,109.74622 60.376715,108.81975 52.150307,110.89044 z M 93.523446,116.6691 C 94.181536,116.47501 94.739528,116.35554 95.242319,116.25933 C 96.154045,116.08485 96.574037,116.07944 96.822435,116.08993 C 96.787282,116.33923 96.749693,116.76506 96.419701,117.62014 C 95.686252,119.52094 93.961221,122.58961 91.290745,126.1568 C 90.534399,125.00595 89.674732,123.90129 88.770898,122.81905 C 87.879501,121.75165 86.918126,120.75799 85.93539,119.81984 C 88.926277,118.32434 91.559075,117.24844 93.523446,116.6691 z M 30.771318,165.89188 C 31.520187,167.02786 32.338338,168.12597 33.231066,169.19494 C 34.124644,170.26492 35.081283,171.25403 36.066587,172.19415 C 32.07581,174.18931 28.727637,175.43151 26.724957,175.81475 C 25.824748,175.98701 25.431119,175.9339 25.179542,175.92407 C 25.213494,175.67778 25.260787,175.30725 25.594964,174.44124 C 26.32904,172.53896 28.096525,169.46318 30.771318,165.89188 z "
       id="path2880"
       inkscape:export-filename="C:\Projects\tetattds\images\block2.png"
       inkscape:export-xdpi="9.4826584"
       inkscape:export-ydpi="9.4826584" />
  </g>
</svg>
